<svg id="Capa_1" enable-background="new 0 0 512 512" height="512" viewBox="0 0 512 512" width="512" xmlns="http://www.w3.org/2000/svg"><g><path d="m77.085 171.772c3.158-5.54 4.973-11.941 4.973-18.761 0-20.959-17.051-38.01-38.01-38.01h-29.048c-8.284 0-15 6.716-15 15v100c0 3.99 1.59 7.815 4.417 10.63 2.812 2.799 6.617 4.369 10.583 4.369h.066c.268-.001 26.799-.119 34.054-.119 23.113 0 41.917-18.804 41.917-41.917 0-12.376-5.395-23.513-13.952-31.192zm-33.037-26.772c4.417 0 8.01 3.593 8.01 8.01s-3.593 8.011-8.01 8.011c-2.099 0-14.048.026-14.048.026v-16.047zm5.072 69.881c-3.61 0-11.708.027-19.12.057v-23.877c1.255-.005 19.12-.014 19.12-.014 6.571 0 11.917 5.346 11.917 11.917s-5.345 11.917-11.917 11.917z"/><path d="m326.301 393.104c-.053-.139-.107-.277-.163-.414-2.676-6.499-8.941-10.694-15.968-10.694-.006 0-.013 0-.019 0-7.033.008-13.299 4.219-15.962 10.728-.046.113-.092.228-.135.342l-37.55 98.592c-2.948 7.742.937 16.408 8.679 19.356 7.745 2.95 16.407-.938 19.356-8.679l5.672-14.894h39.625l5.604 14.851c2.268 6.007 7.975 9.709 14.037 9.708 1.759 0 3.55-.312 5.293-.97 7.751-2.926 11.663-11.58 8.738-19.33zm-24.662 64.337 8.477-22.258 8.4 22.258z"/><path d="m399.249 155c14.396 0 27.335-4.746 37.415-13.724 1.976-1.759 3.854-3.695 5.58-5.755 5.322-6.349 4.49-15.81-1.858-21.132s-15.811-4.49-21.132 1.858c-.793.946-1.646 1.827-2.54 2.623-4.566 4.066-10.442 6.129-17.465 6.129-19.299 0-35-15.701-35-35s15.701-35 35-35c7.015 0 13.778 2.064 19.56 5.969 6.865 4.638 16.19 2.83 20.826-4.033 4.638-6.865 2.831-16.189-4.033-20.826-10.76-7.267-23.33-11.109-36.353-11.109-35.841 0-65 29.159-65 65s29.16 65 65 65z"/><path d="m506.965 323.789-360-320c-4.415-3.925-10.723-4.893-16.11-2.473-5.389 2.42-8.855 7.776-8.855 13.684v320c0 8.284 6.716 15 15 15h360c6.228 0 11.808-3.848 14.021-9.669s.599-12.404-4.056-16.542zm-120.203-66.708c-13.173 18.617-21.398 40.247-23.925 62.92h-140.838v-55c0-8.284-6.716-15-15-15h-55v-201.598zm-234.763 22.919h40v40h-40zm241.087 40c2.205-15.309 7.762-29.923 16.285-42.823l48.175 42.823z"/></g></svg>